<?xml version="1.0" encoding="utf-8"?>
<!-- Generator: Adobe Illustrator 16.0.0, SVG Export Plug-In . SVG Version: 6.00 Build 0)  -->
<!DOCTYPE svg PUBLIC "-//W3C//DTD SVG 1.1//EN" "http://www.w3.org/Graphics/SVG/1.1/DTD/svg11.dtd">
<svg version="1.1" xmlns="http://www.w3.org/2000/svg" xmlns:xlink="http://www.w3.org/1999/xlink" x="0px" y="0px" width="270px"
	 height="144px" viewBox="0 0 270 144" enable-background="new 0 0 270 144" xml:space="preserve">
<g id="Button">
	<path fill="none" stroke="#EAAC4D" stroke-width="2" stroke-miterlimit="10" d="M164.294,24h82.059C256.099,24,264,32.954,264,44
		v74c0,11.046-7.901,20-17.647,20H26.647C16.9,138,9,129.046,9,118V44c0-11.046,7.9-20,17.647-20h80.293"/>
</g>
<g id="Icon">
	<path fill="#FFFFFF" d="M136.5,1c-10.861,0-19.667,7.687-19.667,17.167c0,5.241,2.699,9.926,6.94,13.074
		c-0.77,1.432-3.199,4.764-5.711,7.092c1.989,0.034,4.396,0.048,6.146,0.048c1.813,0,5.583-1.492,8.286-3.405
		c1.293,0.233,2.633,0.358,4.006,0.358c10.862,0,19.667-7.687,19.667-17.167S147.362,1,136.5,1z M135.364,16.094
		c0,1.813-0.156,3.245-0.469,4.297c-0.313,1.053-0.901,1.995-1.766,2.828c-0.865,0.834-1.974,1.49-3.328,1.969l-1.219-2.594
		c1.271-0.416,2.172-0.989,2.703-1.719c0.531-0.729,0.817-1.729,0.859-3h-3.063v-6.281h6.281V16.094z M145.083,16.094
		c0,1.813-0.156,3.245-0.469,4.297c-0.313,1.053-0.901,1.995-1.766,2.828c-0.865,0.834-1.974,1.49-3.328,1.969l-1.219-2.594
		c1.271-0.416,2.172-0.989,2.703-1.719c0.531-0.729,0.817-1.729,0.859-3h-3.063v-6.281h6.281V16.094z"/>
</g>
</svg>
