<?xml version="1.0" encoding="utf-8"?>
<!-- Generator: Adobe Illustrator 16.0.0, SVG Export Plug-In . SVG Version: 6.00 Build 0)  -->
<!DOCTYPE svg PUBLIC "-//W3C//DTD SVG 1.1//EN" "http://www.w3.org/Graphics/SVG/1.1/DTD/svg11.dtd">
<svg version="1.1" xmlns="http://www.w3.org/2000/svg" xmlns:xlink="http://www.w3.org/1999/xlink" x="0px" y="0px" width="154.5px"
	 height="83.5px" viewBox="0 0 154.5 83.5" enable-background="new 0 0 154.5 83.5" xml:space="preserve">
<g id="Button">
	<path fill="none" stroke="#EAAC4D" stroke-width="2" stroke-miterlimit="10" d="M92.99,15.462h47.304
		c5.619,0,10.173,5.074,10.173,11.334v41.933c0,6.259-4.555,11.333-10.173,11.333H13.641c-5.619,0-10.173-5.074-10.173-11.333
		V26.796c0-6.26,4.554-11.334,10.173-11.334h46.287"/>
</g>
<g id="Icon">
	<path fill="#FFFFFF" d="M76.968,2.871c-6.261,0-11.337,4.355-11.337,9.728c0,2.97,1.556,5.625,4,7.409
		c-0.444,0.812-1.844,2.699-3.292,4.019c1.146,0.019,2.534,0.026,3.543,0.026c1.044,0,3.218-0.845,4.776-1.929
		c0.746,0.132,1.518,0.203,2.31,0.203c6.262,0,11.337-4.356,11.337-9.729S83.229,2.871,76.968,2.871z M76.313,11.424
		c0,1.027-0.09,1.84-0.271,2.436c-0.18,0.597-0.52,1.13-1.018,1.603c-0.499,0.473-1.138,0.845-1.919,1.115l-0.702-1.47
		c0.732-0.236,1.252-0.562,1.559-0.974c0.306-0.413,0.471-0.979,0.495-1.701h-1.766V8.874h3.621V11.424z M81.916,11.424
		c0,1.027-0.09,1.84-0.27,2.436c-0.18,0.597-0.52,1.13-1.018,1.603s-1.138,0.845-1.918,1.115l-0.703-1.47
		c0.732-0.236,1.252-0.562,1.559-0.974c0.306-0.413,0.471-0.979,0.495-1.701h-1.765V8.874h3.621V11.424z"/>
</g>
</svg>
