<?xml version="1.0" encoding="utf-8"?>
<!-- Generator: Adobe Illustrator 16.0.0, SVG Export Plug-In . SVG Version: 6.00 Build 0)  -->
<!DOCTYPE svg PUBLIC "-//W3C//DTD SVG 1.1//EN" "http://www.w3.org/Graphics/SVG/1.1/DTD/svg11.dtd">
<svg version="1.1" xmlns="http://www.w3.org/2000/svg" xmlns:xlink="http://www.w3.org/1999/xlink" x="0px" y="0px" width="297px"
	 height="137px" viewBox="0 0 297 137" enable-background="new 0 0 297 137" xml:space="preserve">
<g id="Button">
	<path fill="none" stroke="#EAAC4D" stroke-width="2" stroke-miterlimit="10" d="M180,18.254h93c11.046,0,20,8.954,20,20v74
		c0,11.046-8.954,20-20,20H24c-11.046,0-20-8.954-20-20v-74c0-11.046,8.954-20,20-20h91"/>
</g>
<g id="Icon">
	<g>
		<path fill="#FFFFFF" d="M142.719,27.801l-16.875-7.313V16.41l16.875-7.289v4.781l-11.766,4.5l11.766,4.664V27.801z"/>
		<path fill="#FFFFFF" d="M144.266,30.004l5.57-23h3.539l-5.641,23H144.266z"/>
		<path fill="#FFFFFF" d="M155.445,27.824V23.09l11.789-4.641l-11.789-4.594V9.145l16.875,7.313v4.031L155.445,27.824z"/>
	</g>
</g>
</svg>
